<?xml version="1.0" standalone="no"?>
<!DOCTYPE svg PUBLIC "-//W3C//DTD SVG 20010904//EN"
 "http://www.w3.org/TR/2001/REC-SVG-20010904/DTD/svg10.dtd">
<svg version="1.0" xmlns="http://www.w3.org/2000/svg"
 width="2339.000000pt" height="1654.000000pt" viewBox="0 0 2339.000000 1654.000000"
 preserveAspectRatio="xMidYMid meet">

<g transform="translate(0.000000,1654.000000) scale(0.100000,-0.100000)"
fill="#000000" stroke="none">
<path d="M11899 13247 c-867 -210 -1584 -388 -1593 -396 -19 -16 -19 -24 -5
-91 8 -37 17 -54 34 -62 18 -8 328 64 1606 372 871 210 1595 389 1608 397 21
14 23 20 18 65 -8 66 -29 98 -65 97 -15 0 -736 -173 -1603 -382z"/>
<path d="M11961 12986 c-1223 -296 -1588 -388 -1598 -402 -22 -30 3 -125 38
-147 15 -10 314 60 1544 359 121 29 540 130 930 224 391 94 718 173 728 176
30 9 39 39 26 91 -14 57 -34 83 -63 82 -12 0 -734 -173 -1605 -383z"/>
<path d="M14425 13102 c-77 -27 -138 -66 -190 -124 -119 -131 -146 -318 -70
-474 l26 -53 -79 -118 c-241 -363 -779 -1138 -973 -1403 -715 -975 -1288
-1660 -1855 -2220 -686 -676 -1221 -1029 -1707 -1126 -101 -20 -290 -26 -377
-12 -94 15 -245 64 -309 100 -305 172 -537 506 -716 1031 l-34 97 73 33 c219
102 388 265 486 472 81 172 111 323 103 540 -4 148 -17 187 -73 217 -19 10
-52 18 -73 18 -47 0 -117 -34 -118 -58 0 -9 0 -65 1 -124 3 -275 -78 -497
-239 -659 -273 -273 -700 -275 -998 -5 -107 98 -206 259 -253 412 -26 89 -53
115 -117 121 -63 6 -114 -21 -129 -67 -26 -79 71 -357 185 -530 57 -87 177
-206 272 -270 148 -99 296 -146 494 -157 66 -4 112 -9 102 -11 -21 -4 -23 8
40 -187 63 -197 104 -298 188 -470 221 -450 506 -719 865 -817 76 -21 106 -23
290 -22 202 0 207 1 341 36 693 182 1512 800 2474 1868 198 220 213 234 129
120 -111 -150 -321 -411 -470 -585 -751 -875 -1512 -1423 -2349 -1695 -71 -23
-146 -47 -166 -53 l-36 -12 353 -1463 c269 -1111 361 -1479 384 -1528 38 -78
113 -174 183 -232 69 -57 198 -119 288 -138 155 -33 134 -38 1634 326 754 182
1555 376 1780 430 1261 303 1500 362 1549 380 116 44 247 145 316 245 115 167
146 353 95 574 -43 188 -1085 4505 -1088 4507 -4 4 -148 -33 -154 -39 -2 -3
201 -855 451 -1893 251 -1039 452 -1891 448 -1895 -4 -3 -293 -74 -642 -158
-349 -84 -1566 -378 -2705 -652 -2213 -534 -2213 -534 -2220 -528 -5 6 -487
2001 -483 2004 2 1 59 21 128 45 969 333 1838 1101 2825 2494 54 77 161 216
237 308 598 728 1294 1676 1770 2411 l107 166 38 -11 c21 -6 77 -8 124 -6 76
4 97 9 162 41 128 63 216 181 240 321 34 202 -91 408 -291 475 -77 26 -196 28
-267 3z m212 -259 c84 -39 117 -167 63 -247 -73 -110 -243 -99 -300 20 -56
114 26 244 153 244 27 0 65 -7 84 -17z m-6704 -4100 c-7 -2 -21 -2 -30 0 -10
3 -4 5 12 5 17 0 24 -2 18 -5z m5010 -3545 c31 -15 82 -50 112 -79 121 -114
154 -294 82 -448 -33 -72 -130 -163 -202 -191 -289 -109 -575 116 -533 420 19
143 127 268 273 317 66 21 199 12 268 -19z"/>
<path d="M12021 12725 c-898 -218 -1588 -390 -1593 -397 -13 -18 -2 -106 17
-134 8 -13 23 -24 33 -24 35 0 3178 763 3201 777 21 13 22 19 16 61 -11 74
-31 103 -70 101 -11 -1 -733 -174 -1604 -384z"/>
<path d="M12092 12466 c-1057 -255 -1588 -388 -1599 -399 -15 -15 -16 -24 -5
-73 13 -62 26 -84 51 -84 9 0 729 171 1601 381 1094 264 1591 387 1604 399 38
37 -2 161 -51 159 -10 0 -730 -173 -1601 -383z"/>
<path d="M14247 11380 c-38 -10 -71 -21 -75 -24 -5 -6 75 -355 83 -365 8 -7
155 33 155 43 0 22 -84 366 -90 365 -3 0 -36 -9 -73 -19z"/>
<path d="M11017 9503 c-16 -4 -18 -11 -12 -48 l6 -44 -36 -7 c-43 -8 -47 -13
-39 -53 6 -31 8 -32 52 -29 44 3 46 2 53 -30 9 -43 11 -45 50 -34 28 7 33 12
31 33 -8 63 -8 63 26 70 44 9 46 12 38 54 -6 28 -11 35 -24 31 -68 -20 -69
-20 -79 21 -9 39 -24 47 -66 36z"/>
<path d="M13030 9214 c-124 -31 -241 -63 -260 -73 -65 -33 -99 -139 -66 -203
14 -27 14 -28 -12 -34 -15 -3 -87 -21 -161 -39 -147 -37 -185 -60 -197 -121
-7 -38 239 -1073 264 -1112 19 -29 63 -52 99 -52 15 1 201 43 413 94 l385 94
13 -47 c26 -92 38 -116 71 -138 20 -14 49 -23 70 -23 20 0 211 43 426 94 387
94 390 95 422 130 27 29 33 44 33 81 0 55 -176 790 -196 823 -20 31 -73 62
-106 62 -15 0 -78 -12 -138 -26 -61 -14 -114 -24 -117 -20 -3 3 -27 91 -53
196 -68 276 -76 282 -309 226 -82 -20 -154 -36 -159 -36 -5 0 -12 16 -15 35
-12 76 -89 146 -158 144 -13 0 -125 -25 -249 -55z m332 -21 c37 -37 51 -109
24 -119 -10 -4 -153 -40 -319 -80 l-302 -73 -17 21 c-29 34 -24 101 11 140 27
30 45 36 257 90 261 65 299 68 346 21z m298 -528 c51 -38 79 -53 94 -50 12 3
114 28 228 55 114 28 223 50 242 50 25 0 45 -8 66 -27 29 -27 36 -49 125 -421
52 -217 95 -398 95 -404 0 -21 -33 -79 -50 -88 -10 -5 -196 -53 -414 -105
-378 -92 -397 -95 -430 -81 -19 8 -41 25 -49 38 -16 26 -197 768 -197 808 0
47 35 89 87 102 46 13 47 15 85 96 21 45 39 82 41 82 2 0 36 -25 77 -55z
m-161 -14 c12 -8 12 -14 1 -40 -9 -23 -22 -33 -51 -41 -50 -14 -96 -61 -105
-108 -7 -35 -8 -35 -15 -12 -15 52 -9 106 14 141 36 54 116 85 156 60z m-470
-129 c55 -27 71 -61 112 -224 45 -178 46 -198 18 -248 -53 -94 -190 -99 -244
-8 -9 16 -35 102 -56 190 -33 135 -37 166 -29 197 13 46 27 63 70 90 43 26 84
27 129 3z m315 -249 c3 -10 10 -38 16 -63 7 -25 22 -58 34 -75 23 -30 74 -211
63 -222 -11 -10 -659 -163 -692 -163 -18 0 -39 8 -48 18 -12 13 -97 328 -97
358 0 2 15 4 33 4 17 0 66 9 107 20 41 11 78 20 81 20 3 0 11 -24 18 -54 22
-97 76 -155 154 -163 60 -7 110 11 146 52 44 51 55 100 37 177 -8 35 -13 64
-11 66 3 4 131 39 147 41 4 1 9 -7 12 -16z m-725 -311 c24 -97 50 -189 59
-204 18 -30 51 -48 90 -48 15 0 176 36 357 80 182 44 335 80 341 80 12 0 25
-58 15 -65 -15 -9 -759 -185 -783 -185 -15 0 -39 10 -53 23 -23 19 -34 55 -85
270 -33 136 -60 249 -60 251 0 3 17 -2 38 -11 l38 -15 43 -176z"/>
<path d="M13943 8616 l-213 -53 -47 34 c-84 61 -78 61 -117 -14 -28 -56 -40
-70 -69 -81 -37 -13 -60 -40 -70 -83 -5 -18 22 -145 77 -374 93 -384 96 -392
172 -402 29 -4 121 15 334 66 404 98 397 96 420 134 11 18 20 48 20 67 0 58
-158 691 -178 713 -23 26 -66 47 -94 46 -13 -1 -119 -25 -235 -53z m-20 -165
c39 -15 65 -49 78 -105 6 -28 13 -54 15 -57 2 -4 31 0 64 8 72 19 112 7 141
-41 22 -36 24 -64 7 -100 -15 -34 -42 -50 -106 -66 -51 -12 -54 -14 -48 -39
26 -118 15 -160 -51 -187 -55 -24 -121 6 -136 61 -3 11 -11 39 -17 62 l-10 41
-56 -15 c-31 -8 -69 -11 -85 -8 -43 10 -79 58 -79 107 0 56 38 92 113 108 31
6 57 14 57 18 0 4 -7 31 -14 61 -16 57 -10 89 22 125 30 33 65 42 105 27z"/>
<path d="M14685 7452 c-11 -2 -23 -7 -27 -10 -4 -4 10 -79 32 -167 21 -88 37
-161 36 -162 -1 -2 -94 55 -207 126 -112 71 -206 127 -208 125 -2 -2 21 -104
50 -228 50 -209 56 -226 76 -226 12 0 25 5 28 10 3 6 -10 78 -30 161 -21 82
-35 153 -32 156 4 3 96 -51 206 -121 110 -69 202 -126 204 -126 4 0 -19 98
-86 375 -19 80 -24 90 -42 87z"/>
<path d="M14163 7332 c-9 -5 2 -65 41 -227 51 -210 54 -220 77 -220 33 0 31
22 -26 258 -49 200 -55 213 -92 189z"/>
<path d="M13724 7231 c-43 -26 -64 -59 -64 -99 0 -73 42 -110 151 -133 94 -20
129 -47 129 -102 0 -30 -37 -65 -77 -73 -32 -6 -64 6 -98 37 -19 17 -21 17
-45 -1 l-24 -18 32 -30 c106 -99 272 -41 272 95 0 47 -29 97 -68 117 -16 8
-60 23 -98 32 -38 9 -79 23 -91 30 -68 43 32 138 106 101 27 -13 31 -13 45 2
22 24 20 36 -9 49 -41 19 -125 15 -161 -7z"/>
<path d="M13262 7111 c-40 -10 -74 -20 -76 -22 -4 -5 101 -440 108 -446 7 -7
99 15 163 39 161 59 204 257 82 380 -71 71 -138 83 -277 49z m216 -71 c68 -51
91 -151 49 -225 -23 -42 -98 -88 -163 -101 l-30 -6 -41 169 c-23 92 -40 170
-38 172 11 10 77 20 130 18 45 -2 68 -9 93 -27z"/>
<path d="M12870 7016 c-39 -11 -45 -15 -42 -37 6 -38 100 -420 105 -425 3 -3
16 -2 30 1 l25 7 -24 91 c-13 51 -20 95 -16 99 4 4 47 -28 96 -72 85 -77 103
-86 137 -72 13 5 -3 25 -72 87 -80 72 -87 81 -71 92 71 51 93 106 68 167 -29
70 -119 93 -236 62z m157 -51 c30 -21 39 -69 18 -101 -16 -25 -101 -71 -112
-61 -4 5 -42 145 -43 159 0 20 109 23 137 3z"/>
<path d="M12442 6922 c-66 -24 -117 -71 -148 -137 -61 -127 7 -283 144 -329
188 -65 381 96 341 283 -32 152 -187 236 -337 183z m201 -79 c53 -37 77 -85
77 -151 0 -59 -15 -94 -57 -134 -106 -101 -278 -60 -323 78 -16 47 -6 105 25
154 57 90 190 116 278 53z"/>
<path d="M14085 6906 c-23 -34 -5 -66 35 -66 40 0 58 32 35 66 -8 13 -24 24
-35 24 -11 0 -27 -11 -35 -24z"/>
<path d="M14020 6710 c-448 -109 -1161 -281 -1584 -383 -440 -106 -772 -191
-777 -198 -5 -8 -3 -17 4 -21 7 -4 8 -8 2 -8 -5 0 -3 -5 5 -10 8 -5 31 -7 51
-4 33 6 37 4 43 -21 9 -37 -10 -57 -29 -32 -10 14 -20 17 -37 11 l-23 -8 25
-6 c32 -8 42 -65 13 -73 -16 -4 -15 -6 5 -12 24 -8 30 -30 9 -38 -13 -5 -17
-41 -5 -52 3 -4 100 16 214 44 115 28 414 100 664 160 250 60 653 157 895 216
242 58 656 158 920 221 264 64 484 119 488 123 7 7 -50 270 -62 282 -3 3 -373
-83 -821 -191z m626 55 c5 -29 8 -33 18 -21 6 8 23 18 37 21 36 9 50 -14 21
-33 -12 -8 -22 -20 -22 -28 0 -11 30 -27 55 -29 21 -1 15 -33 -7 -39 -36 -9
-48 -7 -48 8 0 8 -7 17 -16 20 -13 5 -15 1 -10 -18 6 -24 -7 -36 -41 -36 -11
0 -13 7 -8 29 8 37 -12 111 -33 128 -15 11 -15 14 -2 23 30 20 49 11 56 -25z
m-260 -69 c9 -48 -4 -65 -27 -35 -25 33 -32 20 -18 -35 8 -33 16 -46 27 -44 9
2 18 -4 20 -13 2 -12 -9 -19 -43 -28 -25 -6 -50 -9 -55 -6 -13 8 -1 35 15 35
17 0 -5 92 -23 98 -9 3 -11 -4 -6 -22 5 -21 3 -26 -14 -26 -15 0 -21 9 -27 36
-3 20 -5 37 -3 38 3 2 125 33 140 35 4 0 10 -14 14 -33z m156 7 c9 -10 19 -29
23 -43 4 -14 15 -30 24 -37 21 -17 7 -26 -65 -43 -48 -12 -57 -11 -71 2 -25
26 -9 63 34 82 35 15 23 15 -27 0 -14 -4 -20 -2 -20 9 0 17 17 33 45 40 35 8
42 7 57 -10z m-727 -173 c16 -67 19 -70 46 -70 18 0 29 -5 29 -14 0 -14 -117
-49 -132 -40 -15 10 -8 25 17 34 13 5 23 15 20 22 -2 7 -9 32 -15 55 -8 34
-14 40 -30 36 -15 -4 -20 0 -20 15 0 19 12 25 56 31 7 0 20 -30 29 -69z m220
35 c27 -26 32 -45 13 -45 -8 0 -6 -5 4 -11 24 -13 12 -35 -24 -48 -52 -18 -85
-14 -108 16 -57 72 50 154 115 88z m-417 -32 c-5 -26 -34 -28 -41 -3 -4 16 0
20 20 20 18 0 24 -5 21 -17z m-221 -64 c4 -21 9 -27 16 -20 33 33 117 -8 117
-56 0 -28 -41 -73 -67 -73 -10 0 -35 -3 -55 -6 -30 -5 -38 -3 -38 9 0 8 4 17
10 19 15 5 -16 108 -37 123 -17 13 -17 14 7 24 37 15 40 14 47 -20z m244 -13
c10 -39 14 -44 37 -43 18 1 27 -3 27 -12 0 -14 -77 -40 -117 -41 -27 0 -22 29
6 36 20 5 23 10 17 32 -5 17 -15 28 -29 30 -26 4 -29 29 -4 35 44 12 52 7 63
-37z m-475 -37 c3 -6 2 -14 -4 -18 -14 -9 5 -91 24 -107 23 -19 16 -33 -21
-40 -43 -8 -54 0 -37 26 8 13 9 27 2 42 -8 22 -9 22 -9 -5 -1 -35 -26 -45 -51
-22 -21 19 -24 17 -14 -9 3 -9 13 -16 21 -16 26 0 9 -33 -21 -41 -37 -10 -48
-4 -40 25 7 28 -13 106 -26 106 -22 0 -8 30 17 36 22 6 31 1 53 -26 l27 -33 7
39 c5 21 13 42 19 46 18 11 45 10 53 -3z m161 -21 c30 -28 29 -63 -2 -93 -46
-47 -125 -23 -125 37 0 68 78 102 127 56z m-713 -114 c17 -45 -1 -69 -30 -39
-12 11 -20 12 -35 4 -28 -15 -14 -29 30 -29 42 0 75 -27 69 -56 -4 -24 -47
-51 -90 -57 -34 -5 -39 -3 -44 18 -8 32 3 50 21 35 17 -14 67 -9 73 8 2 8 -9
12 -35 12 -66 0 -96 41 -62 84 11 15 33 26 52 29 17 2 35 5 38 5 4 1 10 -5 13
-14z m199 -16 c26 -31 21 -46 -21 -53 -43 -7 -78 -25 -50 -25 9 0 28 5 42 11
14 7 32 9 41 5 25 -9 4 -30 -45 -45 -50 -15 -89 1 -103 42 -24 73 84 126 136
65z m-753 -166 c15 -64 17 -67 44 -64 22 2 27 -1 24 -15 -2 -12 -20 -22 -57
-31 -62 -15 -90 -10 -71 13 7 8 19 15 27 15 11 0 13 7 9 26 -4 15 -10 39 -13
55 -4 22 -11 29 -29 29 -36 0 -29 28 9 38 17 5 34 7 37 5 3 -3 12 -35 20 -71z
m220 48 c31 -31 25 -48 -22 -60 -24 -6 -47 -13 -53 -15 -16 -7 57 2 83 10 17
6 22 3 22 -9 0 -19 -56 -46 -95 -46 -34 0 -65 33 -65 69 0 59 88 93 130 51z
m-417 -40 c4 -16 0 -20 -19 -20 -13 0 -24 6 -24 13 0 32 35 37 43 7z m23 -72
c8 -37 13 -43 37 -46 39 -5 33 -30 -10 -41 -94 -25 -93 -25 -93 -2 0 12 6 21
14 21 21 0 28 15 21 43 -4 16 -13 23 -28 23 -30 -1 -28 26 3 35 43 12 47 10
56 -33z"/>
<path d="M14485 6620 c-8 -13 15 -13 35 0 12 8 11 10 -7 10 -12 0 -25 -4 -28
-10z"/>
<path d="M13956 6542 c-3 -5 8 -6 25 -4 16 2 29 6 29 8 0 8 -49 4 -54 -4z"/>
<path d="M13975 6500 l-30 -8 30 -1 c17 0 37 4 45 9 13 9 13 10 0 9 -8 -1 -28
-5 -45 -9z"/>
<path d="M13435 6416 c-27 -20 -15 -51 20 -51 23 0 31 5 33 22 4 29 -28 47
-53 29z"/>
<path d="M13241 6367 c-20 -24 -2 -48 33 -45 26 2 31 7 31 28 0 19 -6 26 -26
28 -14 2 -31 -3 -38 -11z"/>
<path d="M12725 6250 c-8 -13 15 -13 35 0 12 8 11 10 -7 10 -12 0 -25 -4 -28
-10z"/>
<path d="M12195 6120 c-4 -7 3 -8 22 -4 38 9 42 14 10 14 -14 0 -29 -5 -32
-10z"/>
<path d="M12003 6826 c-117 -37 -183 -124 -183 -241 0 -68 27 -132 74 -173 62
-55 94 -67 176 -67 62 0 85 5 133 28 43 22 57 34 57 50 0 45 -14 50 -55 23
-92 -62 -189 -59 -265 10 -138 125 -24 335 175 322 l62 -4 -8 31 c-5 16 -9 31
-9 32 0 9 -122 0 -157 -11z"/>
<path d="M11577 6710 c-60 -15 -111 -30 -114 -33 -5 -5 95 -437 104 -446 2 -3
57 8 123 24 109 26 120 31 120 51 0 13 -4 25 -8 28 -5 3 -48 -4 -96 -16 -48
-11 -91 -16 -96 -12 -4 5 -15 40 -24 78 -13 53 -14 71 -5 77 7 4 50 15 96 25
83 17 84 18 78 43 -4 14 -8 27 -9 29 -2 1 -42 -7 -90 -18 -48 -11 -90 -20 -95
-20 -6 0 -31 86 -31 110 0 4 43 18 95 31 71 17 94 27 90 37 -3 7 -5 20 -5 28
0 18 -4 18 -133 -16z"/>
<path d="M11150 6606 c-39 -11 -45 -15 -42 -37 6 -38 100 -420 105 -425 3 -3
16 -2 30 1 l25 7 -24 91 c-13 51 -20 95 -16 99 4 4 47 -28 96 -72 85 -77 103
-86 137 -72 13 5 -3 25 -72 87 -80 72 -87 81 -71 92 71 51 93 106 68 167 -29
70 -119 93 -236 62z m157 -51 c30 -21 39 -69 18 -101 -16 -25 -101 -71 -112
-61 -4 5 -42 145 -43 159 0 20 109 23 137 3z"/>
<path d="M10783 6513 c-21 -4 -25 -13 -89 -212 -3 -10 -32 12 -87 67 -74 74
-85 81 -110 74 -27 -7 -26 -8 77 -117 l104 -111 22 -97 c17 -74 26 -97 39 -97
39 1 41 12 16 117 l-24 102 40 128 c22 70 42 134 44 141 3 6 1 11 -3 11 -4 -1
-17 -4 -29 -6z"/>
<path d="M10256 6220 c-16 -99 -32 -180 -36 -180 -3 0 -53 65 -111 144 l-104
144 -6 -97 c-12 -182 -10 -391 4 -391 31 1 36 18 44 170 l8 154 103 -138 c56
-75 102 -135 102 -131 0 19 51 320 55 324 7 6 5 10 80 -132 62 -119 69 -128
94 -125 14 2 25 8 24 13 -3 11 -224 425 -227 425 -1 0 -15 -81 -30 -180z"/>
<path d="M10957 6263 c-43 -12 -57 -19 -53 -30 3 -8 6 -21 6 -28 0 -10 9 -11
43 -3 119 28 118 28 115 51 -4 28 -33 31 -111 10z"/>
</g>
</svg>
